# xmcd CD database file
#
# Track frame offsets:
#	150
#	20405
#	34995
#	56190
#	74445
#	94855
#	106190
#	122905
#	140630
#	150975
#	166330
#	183195
#
# Disc length: 2680 seconds
#
# Revision: 0
# Processed by: cddbd v1.5.1PL2 Copyright (c) Steve Scherf et al.
# Submitted via: Feurio! 1.68 - http://www.feurio.com
#
DISCID=a20a760c
DTITLE=American Blues Box - American Blues Box
DYEAR=2006
DGENRE=Blues Rock
TTITLE0=Mississippi Mud
TTITLE1=Unconditional Love
TTITLE2=Some Kind Of Wonderful
TTITLE3=Whiskey and Water
TTITLE4=Killing Time
TTITLE5=When You Were Young
TTITLE6=Red Hot Lover
TTITLE7=Rattle My Bones
TTITLE8=Biscuit Bakin Mama
TTITLE9=Half The Man
TTITLE10=Shake Your Tree
TTITLE11=I Can't Hold Out (Live)
EXTD=
EXTT0=
EXTT1=
EXTT2=
EXTT3=
EXTT4=
EXTT5=
EXTT6=
EXTT7=
EXTT8=
EXTT9=
EXTT10=
EXTT11=
PLAYORDER=
